{"title":"The Green Hornet-AC3-XviD-BRRip 2011 TBS","uid":6288389,"size":1885044469,"categoryP":"video","categoryS":"movies","magnet":"?xt=urn:btih:2ffefa9c888b33ef5900e9ae0d20239e6cb08887&amp;dn=The+Green+Hornet-AC3-XviD-BRRip+2011+TBS&amp;tr=udp%3A%2F%2Ftracker.openbittorrent.com%3A80&amp;tr=udp%3A%2F%2Fopen.demonii.com%3A1337&amp;tr=udp%3A%2F%2Ftracker.coppersurfer.tk%3A6969&amp;tr=udp%3A%2F%2Fexodus.desync.com%3A6969","seeders":0,"leechers":0,"uploader":"FatFreddy30","files":-1,"time":1301702176,"description":"Following the death of his father, Britt Reid, heir to his father's large company, teams up with his late dad's assistant Kato to become a masked crime fighting team...\n &lt;a href=&quot;\nhttp://www.imdb.com/title/tt0990407/&quot; rel=&quot;nofollow&quot; target=&quot;_NEW&quot;&gt;\nhttp://www.imdb.com/title/tt0990407/&lt;/a&gt;\n\nSubtitles: Dutch, English.\n\nBritt Reid (Seth Rogen) is de zoon van de bekendste en meest gerespecteerde mediamagnaat van L.A. Zijn zorgeloze leventje bestaat voornamelijk uit feestvieren, totdat zijn vader op mysterieuze wijze sterft en aan Britt zijn omvangrijke imperium nalaat. Britt sluit daarop vriendschap met ÃƒÂ©ÃƒÂ©n van zijn vaders werknemers, de toegewijde en inventieve Kato (Jay Chou). Ze besluiten om voor het eerst in hun leven iets zinvols te doen: de misdaad bestrijden. En de beste manier om dit te doen is... door zelf crimineel te worden. Zo wordt Britt 'The Green Hornet' en samen met Kato gaat hij de straat op, om de wet te beschermen door deze te overtreden... De vindingrijke Kato bouwt het ultieme retro-wapen: The Black Beauty, een snelle en onverwoestbare auto met de meest geavanceerde wapens aan boord. Met dit rijdende fort en de slimme gadgets van Kato worden ze al snel de schrik van iedere crimineel. Met behulp van Britts nieuwe secretaresse, Lenore Case (Cameron Diaz), openen ze de jacht op de man die de onderwereld van L.A. beheerst: Benjamin Chudnofsky (Christoph Waltz). Maar Chudnofsky heeft zijn eigen plan...\n &lt;a href=&quot;\nhttp://www.moviemeter.nl/film/60011&quot; rel=&quot;nofollow&quot; target=&quot;_NEW&quot;&gt;\nhttp://www.moviemeter.nl/film/60011&lt;/a&gt;\n\nOndertitels: Engels, Nederlands.\n\nGeneral\nComplete name                    : The Green Hornet-AC3-XviD-BRRip 2011.avi\nFormat                           : AVI\nFormat/Info                      : Audio Video Interleave\nFile size                        : 1.75 GiB\nDuration                         : 1h 58mn\nOverall bit rate                 : 2 113 Kbps\nWriting application              : VirtualDubMod 1.5.4.1 (build 2178/release)\nWriting library                  : VirtualDubMod build 2178/release\n\nVideo\nID                               : 0\nFormat                           : MPEG-4 Visual\nFormat profile                   : Simple@L3\nFormat settings, BVOP            : No\nFormat settings, QPel            : No\nFormat settings, GMC             : No warppoints\nFormat settings, Matrix          : Default (H.263)\nCodec ID                         : XVID\nCodec ID/Hint                    : XviD\nDuration                         : 1h 58mn\nBit rate                         : 1 656 Kbps\nWidth                            : 720 pixels\nHeight                           : 304 pixels\nDisplay aspect ratio             : 2.35:1\nFrame rate                       : 23.976 fps\nResolution                       : 8 bits\nColorimetry                      : 4:2:0\nScan type                        : Progressive\nBits/(Pixel*Frame)               : 0.316\nStream size                      : 1.38 GiB (78%)\nWriting library                  : XviD 1.1.2 (UTC 2006-11-01)\n\nAudio\nID                               : 1\nFormat                           : AC-3\nFormat/Info                      : Audio Coding 3\nCodec ID                         : 2000\nDuration                         : 1h 58mn\nBit rate mode                    : Constant\nBit rate                         : 448 Kbps\nChannel(s)                       : 6 channels\nChannel positions                : Front: L C R, Surround: L R, LFE\nSampling rate                    : 48.0 KHz\nStream size                      : 381 MiB (21%)\nAlignment                        : Split accross interleaves\nInterleave, duration             : 42 ms (1.00 video frame)\nInterleave, preload duration     : 500 ms\n\nEnjoy..\n\nTBS.","torrent":{"xt":"urn:btih:2ffefa9c888b33ef5900e9ae0d20239e6cb08887","amp;dn":"The+Green+Hornet-AC3-XviD-BRRip+2011+TBS","amp;tr":["udp%3A%2F%2Ftracker.openbittorrent.com%3A80","udp%3A%2F%2Fopen.demonii.com%3A1337","udp%3A%2F%2Ftracker.coppersurfer.tk%3A6969","udp%3A%2F%2Fexodus.desync.com%3A6969"],"infoHash":"2ffefa9c888b33ef5900e9ae0d20239e6cb08887","infoHashBuffer":{"type":"Buffer","data":[47,254,250,156,136,139,51,239,89,0,233,174,13,32,35,158,108,176,136,135]},"announce":[],"urlList":[]}}